<!DOCTYPE svg PUBLIC "-//W3C//DTD SVG 1.1//EN"
       "http://www.w3.org/Graphics/SVG/1.1/DTD/svg11.dtd">
<svg version="1.1" xmlns="http://www.w3.org/2000/svg" xmlns:xlink="http://www.w3.org/1999/xlink" viewBox="0 0 22 22">
 <g>
  <rect height="22" opacity="0" width="22" x="0" y="0"/>
  <path d="M19.8052 8.16406C19.8052 7.22656 18.5356 6.23046 16.7974 6.23046L13.3794 6.23046C12.9399 6.23046 12.7934 6.1328 12.52 5.85938L7.10008 0.27344C6.91454 0.08788 6.71922 0 6.48484 0L5.0786 0C4.87352 0 4.74656 0.18554 4.854 0.40038L7.68602 6.20116L3.59422 6.63086L2.12938 4.30664C2.0122 4.11132 1.82664 4.02344 1.60204 4.02344L1.20164 4.02344C0.9575 4.02344 0.781724 4.19922 0.781724 4.4336L0.781724 11.8945C0.781724 12.1289 0.9575 12.3047 1.20164 12.3047L1.60204 12.3047C1.82664 12.3047 2.0122 12.2168 2.12938 12.0215L3.59422 9.69726L7.68602 10.1269L4.854 15.9277C4.74656 16.1426 4.87352 16.3281 5.0786 16.3281L6.48484 16.3281C6.71922 16.3281 6.91454 16.2402 7.10008 16.0547L12.52 10.4687C12.7934 10.1953 12.9399 10.0977 13.3794 10.0977L16.7974 10.0977C18.5356 10.0977 19.8052 9.10156 19.8052 8.16406Z" fill="#748c63"/>
 </g>
</svg>