<!DOCTYPE svg PUBLIC "-//W3C//DTD SVG 1.1//EN"
       "http://www.w3.org/Graphics/SVG/1.1/DTD/svg11.dtd">
<svg version="1.1" xmlns="http://www.w3.org/2000/svg" xmlns:xlink="http://www.w3.org/1999/xlink" viewBox="0 0 17.1582 16.8066">
 <g>
  <rect height="16.8066" opacity="0" width="17.1582" x="0" y="0"/>
  <path d="M8.56445 13.8086C9.94141 13.8086 11.084 11.7188 11.377 11.25C11.7578 10.6152 11.582 10 11.582 9.6582C11.582 9.46289 12.334 8.90625 12.334 8.26172C12.334 7.75391 10.8301 7.22656 10.8301 6.80664C10.8301 6.66016 10.9961 6.42578 11.1133 6.42578C11.4258 6.42578 12.3145 7.66602 12.7246 7.66602C13.0078 7.66602 12.9199 7.25586 13.0859 7.25586C13.3887 7.25586 13.5938 9.36523 15.2051 10.4004C15.7227 10.2051 16.2598 9.42383 16.2598 8.4082C16.2598 4.08203 12.7246 0.546875 8.39844 0.546875C6.42578 0.546875 5.26367 1.2793 5.26367 2.5293C5.26367 3.74023 4.51172 4.01367 4.51172 4.73633C4.51172 5.07812 4.74609 5.2832 5.12695 5.2832C5.75195 5.2832 6.24023 4.50195 6.60156 4.50195C6.82617 4.50195 6.98242 4.89258 7.51953 4.89258C7.66602 4.89258 7.83203 4.84375 7.89062 4.61914C7.91992 4.50195 7.99805 4.43359 8.10547 4.43359C8.57422 4.43359 8.93555 4.99023 8.93555 5.18555C8.93555 5.41992 8.80859 5.5957 8.63281 5.5957C8.4668 5.5957 7.67578 5.35156 6.94336 5.35156C5.24414 5.35156 3.90625 6.43555 3.90625 7.8125C3.90625 9.05273 4.6582 9.78516 5.91797 9.78516C6.58203 9.78516 7.06055 10.2246 7.06055 10.8301C7.06055 11.875 6.94336 13.8086 8.56445 13.8086ZM10.7031 4.39453C10.5273 4.39453 10.4688 4.50195 10.166 4.50195C9.88281 4.50195 9.6582 4.27734 9.6582 3.99414C9.6582 3.59375 10.0293 3.35938 10.6543 3.35938C11.1914 3.35938 11.6016 3.66211 11.6016 4.05273C11.6016 4.31641 11.416 4.52148 11.1914 4.52148C10.8887 4.52148 10.791 4.39453 10.7031 4.39453ZM8.39844 16.7969C13.0371 16.7969 16.7969 13.0371 16.7969 8.39844C16.7969 3.75977 13.0371 0 8.39844 0C3.75977 0 0 3.75977 0 8.39844C0 13.0371 3.75977 16.7969 8.39844 16.7969ZM8.39844 14.6484C4.95117 14.6484 2.14844 11.8457 2.14844 8.39844C2.14844 4.95117 4.95117 2.14844 8.39844 2.14844C11.8457 2.14844 14.6484 4.95117 14.6484 8.39844C14.6484 11.8457 11.8457 14.6484 8.39844 14.6484Z" fill="#748c63"/>
 </g>
</svg>