<!DOCTYPE svg PUBLIC "-//W3C//DTD SVG 1.1//EN"
       "http://www.w3.org/Graphics/SVG/1.1/DTD/svg11.dtd">
<svg version="1.1" xmlns="http://www.w3.org/2000/svg" xmlns:xlink="http://www.w3.org/1999/xlink" viewBox="0 0 22.2754 22.7832">
 <g>
  <rect height="22.7832" opacity="0" width="22.2754" x="0" y="0"/>
  <path d="M20.7324 7.19727L13.3105 3.80859C12.4219 3.4082 11.6602 3.21289 10.957 3.22266C10.2539 3.21289 9.49219 3.4082 8.60352 3.80859L1.18164 7.19727C0.458984 7.5293 0 8.16406 0 8.91602C0 9.66797 0.458984 10.332 1.18164 10.6348L3.29102 11.5234L8.80859 8.99414C8.80859 8.96484 8.80859 8.94531 8.80859 8.91602C8.80859 8.03711 9.84375 7.48047 10.957 7.48047C12.0605 7.48047 13.0957 8.02734 13.0957 8.91602C13.0957 9.80469 12.0703 10.3711 10.957 10.3711C10.5957 10.3711 10.2441 10.3125 9.93164 10.2051L5.04883 12.4023L8.60352 14.0234C9.49219 14.4336 10.2539 14.6191 10.957 14.6094C11.6602 14.6191 12.4219 14.4238 13.3105 14.0234L20.7324 10.6348C21.4551 10.3027 21.9141 9.66797 21.9141 8.91602C21.9141 8.16406 21.4551 7.5293 20.7324 7.19727ZM5.04883 14.0137L5.04883 17.7148C6.57227 18.6035 8.69141 19.1211 10.957 19.1211C15.3809 19.1211 19.2188 17.1387 19.2188 14.3652L19.2188 12.9297L13.916 15.3613C12.8516 15.8496 11.8555 16.084 10.957 16.0742C10.0586 16.084 9.07227 15.8496 7.99805 15.3613ZM2.69531 12.9395L2.69531 14.3652C2.69531 15.0195 2.91016 15.6348 3.30078 16.1914L3.30078 13.2129ZM3.30078 18.7598L5.04883 18.7695L5.04883 17.7148C4.30664 17.2852 3.71094 16.7676 3.30078 16.1914ZM2.30469 19.4629L2.30469 21.3184C2.30469 22.1973 2.89062 22.7832 3.76953 22.7832L4.57031 22.7832C5.44922 22.7832 6.03516 22.1973 6.03516 21.3184L6.03516 19.4629C6.03516 18.584 5.44922 17.998 4.57031 17.998L3.76953 17.998C2.89062 17.998 2.30469 18.584 2.30469 19.4629Z" fill="#748c63"/>
 </g>
</svg>